<?xml version="1.0" standalone="no"?><!DOCTYPE svg PUBLIC "-//W3C//DTD SVG 1.1//EN" "http://www.w3.org/Graphics/SVG/1.1/DTD/svg11.dtd"><svg t="1627708599308" class="icon" viewBox="0 0 1024 1024" version="1.1" xmlns="http://www.w3.org/2000/svg" p-id="3037" xmlns:xlink="http://www.w3.org/1999/xlink" width="200" height="200"><defs><style type="text/css">:not(pre) { -webkit-text-stroke: 0.6px !important; }
@font-face { font-family: Georgia; src: local("Source Han Serif SC"); }
@font-face { font-family: Times; src: local("Source Han Serif SC"); }
@font-face { font-family: "Time New Roman"; src: local("Source Han Serif SC"); }
@font-face { font-family: Arial; src: local("Source Han Sans SC"); }
@font-face { font-family: Helvetica; src: local("Source Han Sans SC"); }
@font-face { font-family: "Helvetica Neue"; src: local("Source Han Sans SC"); }
@font-face { font-family: "Segoe UI"; src: local("Source Han Sans SC"); }
@font-face { font-family: Tahoma; src: local("Source Han Sans SC"); }
@font-face { font-family: Trebuchet; src: local("Source Han Sans SC"); }
@font-face { font-family: "Trebuchet MS"; src: local("Source Han Sans SC"); }
@font-face { font-family: Verdana; src: local("Source Han Sans SC"); }
@font-face { font-family: Consolas; src: local("Source Code Pro"); }
@font-face { font-family: Courier; src: local("Source Code Pro"); }
@font-face { font-family: "Courier New"; src: local("Source Code Pro"); }
@font-face { font-family: SimSun; src: local("Source Han Sans SC"); }
@font-face { font-family: SimSun-ExtB; src: local("Source Han Sans SC"); }
@font-face { font-family: 宋体; src: local("Source Han Sans SC"); }
@font-face { font-family: NSimSun; src: local("Source Han Sans SC"); }
@font-face { font-family: 新宋体; src: local("Source Han Sans SC"); }
@font-face { font-family: SimHei; src: local("Source Han Sans SC"); }
@font-face { font-family: 黑体; src: local("Source Han Sans SC"); }
@font-face { font-family: "Microsoft YaHei"; src: local("Source Han Sans SC"); }
@font-face { font-family: 微软雅黑; src: local("Source Han Sans SC"); }
@font-face { font-family: "STHeiti SC"; src: local("Source Han Sans SC"); }
@font-face { font-family: "PingFang SC"; src: local("Source Han Sans SC"); }
@font-face { font-family: 苹方-简; src: local("Source Han Sans SC"); }
@font-face { font-family: MingLiU; src: local("Source Han Sans TC"); }
@font-face { font-family: MingLiU-ExtB; src: local("Source Han Sans TC"); }
@font-face { font-family: PMingLiU; src: local("Source Han Sans TC"); }
@font-face { font-family: PMingLiU-ExtB; src: local("Source Han Sans TC"); }
@font-face { font-family: "Microsoft JhengHei"; src: local("Source Han Sans TC"); }
@font-face { font-family: 微軟正黑體; src: local("Source Han Sans TC"); }
@font-face { font-family: "STHeiti TC"; src: local("Source Han Sans TC"); }
@font-face { font-family: "PingFang TC"; src: local("Source Han Sans TC"); }
@font-face { font-family: 蘋方-繁; src: local("Source Han Sans TC"); }
@font-face { font-family: MingLiU_HKSCS; src: local("Source Han Sans HC"); }
@font-face { font-family: MingLiU_HKSCS-ExtB; src: local("Source Han Sans HC"); }
@font-face { font-family: "PingFang HK"; src: local("Source Han Sans HC"); }
@font-face { font-family: 蘋方-港; src: local("Source Han Sans HC"); }
@font-face { font-family: "MS Gothic"; src: local("Source Han Sans"); }
@font-face { font-family: "MS PGothic"; src: local("Source Han Sans"); }
@font-face { font-family: "MS UI Gothic"; src: local("Source Han Sans"); }
@font-face { font-family: "Yu Gothic"; src: local("Source Han Sans"); }
@font-face { font-family: "Yu Gothic UI"; src: local("Source Han Sans"); }
@font-face { font-family: "Malgun Gothic"; }
</style></defs><path d="M148.859845 404.057356c-5.11465 15.34395 0 20.4586 0 76.719751 0 15.34395-61.375801 76.719751-86.949052 143.210202-25.57325 66.490451-25.57325 138.095552 10.2293 163.668803 35.802551 30.6879 71.605101-92.063701 76.719752-71.605101 0 5.11465 5.11465 15.34395 5.11465 25.57325 15.34395 35.802551 35.802551 71.605101 61.375801 102.293002 5.11465 5.11465-35.802551 20.4586-61.375801 61.3758-25.57325 40.917201 10.2293 117.636952 132.980902 117.636952 158.554152 0 199.471353-56.261151 199.471353-56.261151h51.1465c10.2293 0 86.949051 66.490451 194.356703 56.261151 184.127403-20.4586 158.554152-81.834401 143.210202-122.751602-15.34395-40.917201-66.490451-61.375801-66.490451-61.375801 46.031851-51.146501 51.146501-76.719751 66.490451-122.751601 5.11465-20.4586 51.146501 102.293002 81.834402 71.605101 15.34395-10.2293 40.917201-61.375801 15.34395-163.668803s-81.834401-127.866252-81.834401-143.210202V404.057356c-10.2293-35.802551-30.6879-25.57325-30.687901-35.802551 0-204.586003-153.439502-368.254805-342.681555-368.254805S174.433095 163.668802 174.433095 368.254805c0 15.34395-15.34395 5.11465-25.57325 35.802551z m0 0" fill="#ffffff" p-id="3038"></path></svg>