<svg id="图层_1" data-name="图层 1" xmlns="http://www.w3.org/2000/svg" viewBox="0 0 513.15 157.48"><title>qqpay</title><path d="M16.46,71.33V70.85c1.86-7.91,1.39-16.32,3.24-24.71C22.49,29.37,33.63,14,49.34,7S84.06,2.32,97,13.05c11.11,9.33,17.13,24.24,18.52,38.7a13.09,13.09,0,0,1-.46,4.2c-0.47,1.4-1.85,2.33-2.81,3.26L72.48,91.39c-1.39,1.4-3.24,2.79-5.1,2.79-2.78.47-5.56-1.4-8.33-2.79-6-4.2-12.5-7.91-18.52-12.12-1.85-1.4-4.16-2.8-6.48-1.87-0.46,0-.46.46,0,0.46l30.1,35c1.39,1.4,2.78,2.8,4.63,2.8,1.39,0,2.31-.93,3.24-1.87l44-43.83h0.46c8.34,18.18,17.13,37.77,16.67,57.82a2.82,2.82,0,0,1-.46,1.86c-0.93.93-2.32,0-3.24-.93l-10.66-10.26a0.46,0.46,0,0,0-.47.45s0,0,0,0a46.12,46.12,0,0,1-13.89,28.91v0.48a18.3,18.3,0,0,1,8.34,3.26c2.32,1.87,4.16,5.6,3.24,8.39a0.46,0.46,0,0,1-.44.47H21.1c-0.93,0-2.81.46-3.24-.93,0-.93.93-2.33,1.39-3.27a12.41,12.41,0,0,1,2.32-2.8,16.33,16.33,0,0,1,6-3.73s2.32-.46,2.81-0.46a0.46,0.46,0,0,0,.47-0.45s0,0,0,0c0-4.19-3.24-7-6-10.26a39.55,39.55,0,0,1-7-14c0-2.83-.93-5.6-2.81-6.06H14.58a49.45,49.45,0,0,1-7.86,12.12c-0.93.93-1.85,1.4-2.81,0.93a1.7,1.7,0,0,1-.47-1.4A82.75,82.75,0,0,1,8.08,93.25c2.81-7.46,6.48-14.46,8.33-21.92h0Z" transform="translate(-3 -3)" style="fill:#fff"/><path d="M232.34,109.85A47.82,47.82,0,0,0,244.08,116l-5.4,10.35a33.48,33.48,0,0,1-6.49-2.72q-0.69-.35-9.76-6.44a39,39,0,0,1-15.8,3.12q-16.74,0-26.23-9.86t-9.48-27.69q0-17.78,9.51-27.66t25.81-9.88q16.15,0,25.61,9.88t9.46,27.66a47.8,47.8,0,0,1-2.62,16.54A34.41,34.41,0,0,1,232.34,109.85Zm-11.79-8.27a21.91,21.91,0,0,0,4.23-8,37.63,37.63,0,0,0,1.41-10.8q0-12.58-5.55-18.8a20,20,0,0,0-29,0Q186,70.22,186,82.76q0,12.73,5.57,19a18,18,0,0,0,14.09,6.32,17.2,17.2,0,0,0,6-1,42.42,42.42,0,0,0-9.06-4.56l4.11-8.37A49.82,49.82,0,0,1,220.56,101.58Z" transform="translate(-3 -3)" style="fill:#fff"/><path d="M311.25,109.85A47.81,47.81,0,0,0,323,116l-5.4,10.35a33.44,33.44,0,0,1-6.49-2.72q-0.69-.35-9.76-6.44a39,39,0,0,1-15.8,3.12q-16.74,0-26.23-9.86t-9.48-27.69q0-17.78,9.51-27.66t25.81-9.88q16.15,0,25.61,9.88t9.46,27.66a47.78,47.78,0,0,1-2.62,16.54A34.45,34.45,0,0,1,311.25,109.85Zm-11.79-8.27a21.91,21.91,0,0,0,4.23-8,37.61,37.61,0,0,0,1.41-10.8q0-12.58-5.55-18.8a20.05,20.05,0,0,0-29.05,0q-5.57,6.24-5.57,18.77,0,12.73,5.57,19a18,18,0,0,0,14.09,6.32,17.21,17.21,0,0,0,6-1,42.45,42.45,0,0,0-9.06-4.56l4.11-8.37A49.83,49.83,0,0,1,299.46,101.58Z" transform="translate(-3 -3)" style="fill:#fff"/><path d="M331.7,119.06V46.45h23.53q13.37,0,17.43,1.09a19,19,0,0,1,10.45,7.11q4.21,5.47,4.21,14.14A23.7,23.7,0,0,1,384.9,80a19.91,19.91,0,0,1-6.17,7.16,21.22,21.22,0,0,1-7.6,3.44,83.6,83.6,0,0,1-15.21,1h-9.56v27.39H331.7Zm14.66-60.33v20.6h8q8.67,0,11.59-1.14a9.63,9.63,0,0,0,4.58-3.57A9.76,9.76,0,0,0,372.22,69a9.38,9.38,0,0,0-2.33-6.54A10.14,10.14,0,0,0,364,59.23a70.49,70.49,0,0,0-10.55-.5h-7.08Z" transform="translate(-3 -3)" style="fill:#fff"/><path d="M457.31,119.06H441.36L435,102.57H406l-6,16.49H384.45l28.28-72.61h15.5Zm-27-28.73-10-26.94L410.5,90.33h19.81Z" transform="translate(-3 -3)" style="fill:#fff"/><path d="M474.85,119.06V88.5l-26.6-42.05h17.19l17.09,28.73,16.74-28.73h16.89L489.46,88.6v30.46H474.85Z" transform="translate(-3 -3)" style="fill:#fff"/></svg>